<svg xmlns="http://www.w3.org/2000/svg" viewBox="0 0 35 28"><defs><style>.cls-1,.cls-3{fill:none;stroke:#3a6e8f;}.cls-1{stroke-linecap:round;stroke-linejoin:round;}.cls-2{fill:#3a6e8f;}.cls-3{stroke-miterlimit:10;}</style></defs><title>Asset 1</title><g id="Layer_2" data-name="Layer 2"><g id="mail"><path class="cls-1" d="M34.5,2.78V.5s-3.74.06-3.73,0c-.08,1-1,1.57-2.25,1.57S26.36,1.47,26.27.5c0,0-2.35.06-2.34,0-.07,1-1,1.57-2.25,1.57S19.52,1.47,19.44.5c0,0-2.35.06-2.34,0-.08,1-1,1.57-2.25,1.57S12.68,1.47,12.6.5H9.44V2.79c2.28,0,2.26.86,2.26,1.91s0,1.91-2.26,1.92V8.54c2.28,0,2.26.87,2.26,1.92s0,1.91-2.26,1.92V14.3c2.28,0,2.26.86,2.26,1.92s0,1.91-2.26,1.92v1.92c2.28,0,2.26.86,2.26,1.92s0,1.91-2.26,1.92v3.6h3.13c0-1.92,1-1.92,2.28-1.92s2.28,0,2.28,1.92h2.28c0-1.92,1-1.92,2.27-1.92S24,25.58,24,27.5h2.28c0-1.92,1-1.92,2.28-1.92s2.28,0,2.28,1.92h3.7V23.9c-2.28,0-2.28-.86-2.28-1.92s0-1.92,2.28-1.92V18.14c-2.28,0-2.28-.86-2.28-1.92s0-1.92,2.28-1.92V12.38c-2.28,0-2.28-.86-2.28-1.92s0-1.92,2.28-1.92V6.62c-2.28,0-2.28-.86-2.28-1.92S32.22,2.78,34.5,2.78Z"/><path class="cls-2" d="M28.13,5.1V22.9H15.81V5.1H28.13m1-1H14.81V23.9H29.13V4.1Z"/><path class="cls-1" d="M1.45,8.59a6.61,6.61,0,0,0-.95.56"/><path class="cls-3" d="M7.48,6.94a19.71,19.71,0,0,0-6,1.65"/><path class="cls-1" d="M1.45,13.35a7.7,7.7,0,0,0-.95.57"/><path class="cls-3" d="M7.48,11.71a19.91,19.91,0,0,0-6,1.64"/><path class="cls-1" d="M1.45,18.12a6.61,6.61,0,0,0-.95.56"/><path class="cls-3" d="M7.48,16.47a19.71,19.71,0,0,0-6,1.65"/><path class="cls-1" d="M22.27,10.22a7.45,7.45,0,0,0,1.1-.11"/><path class="cls-3" d="M17.21,9.17c.59,0,2.65,1.11,5.06,1.05"/><path class="cls-1" d="M22.27,15a6.31,6.31,0,0,0,1.1-.11"/><path class="cls-3" d="M17.21,13.93c.59,0,2.65,1.12,5.06,1.05"/><path class="cls-1" d="M22.27,19.75a7.45,7.45,0,0,0,1.1-.11"/><path class="cls-3" d="M17.21,18.7c.59,0,2.65,1.11,5.06,1.05"/><line class="cls-3" x1="12.74" y1="7.32" x2="14.21" y2="7.77"/><line class="cls-3" x1="12.74" y1="12.09" x2="14.21" y2="12.53"/><line class="cls-3" x1="12.74" y1="16.85" x2="14.21" y2="17.3"/></g></g></svg>