<svg xmlns="http://www.w3.org/2000/svg" viewBox="0 0 52.22 62"><defs><style>.cls-1{fill:#3b6e8f;}</style></defs><title>Asset 1</title><g id="Layer_2" data-name="Layer 2"><g id="apple_logo" data-name="apple logo"><path class="cls-1" d="M38.17,1.11v.13a12.37,12.37,0,0,1-3.15,8c-2.42,2.82-5.15,4.34-7.91,4.41v-.2a12.6,12.6,0,0,1,3.35-8.11,13.91,13.91,0,0,1,7.71-4.26M38,15.68c.26,0,.51,0,.76,0,4.55.37,7.95,2,10.37,4.93a13.87,13.87,0,0,0-6.48,12.13,14.11,14.11,0,0,0,4.61,10.58A15.21,15.21,0,0,0,51,46c-.25.68-.51,1.33-.77,2A33.07,33.07,0,0,1,47,53.74a29.54,29.54,0,0,1-4.15,5A7.33,7.33,0,0,1,38,60.93a12.94,12.94,0,0,1-4.72-1.14A15.53,15.53,0,0,0,27.4,58.5a16,16,0,0,0-6,1.29A14.57,14.57,0,0,1,16.84,61h-.21a7.13,7.13,0,0,1-4.74-2.25,31.52,31.52,0,0,1-4.33-5.2,36.54,36.54,0,0,1-4.62-9.18A33.68,33.68,0,0,1,1,33.45,19.65,19.65,0,0,1,3.56,23.21a14.91,14.91,0,0,1,5.29-5.35,14.22,14.22,0,0,1,7.13-2,17.16,17.16,0,0,1,5.55,1.31c3.4,1.28,4.48,1.44,5,1.44s1.49-.2,5.53-1.68A18,18,0,0,1,38,15.68M39.1,0a13.08,13.08,0,0,0-5,1.42,13.68,13.68,0,0,0-4.38,3.29,13.54,13.54,0,0,0-3.6,8.77,8.76,8.76,0,0,0,.07,1.17c.25,0,.49,0,.74,0,3.29,0,6.32-1.8,8.86-4.76a13.28,13.28,0,0,0,3.39-8.68h0A10.31,10.31,0,0,0,39.1,0ZM38,14.68A18.81,18.81,0,0,0,31.76,16a28.16,28.16,0,0,1-5.19,1.62,19,19,0,0,1-4.69-1.37A18,18,0,0,0,16,14.84,15.25,15.25,0,0,0,8.34,17,15.76,15.76,0,0,0,2.7,22.71,20.49,20.49,0,0,0,0,33.45,34.73,34.73,0,0,0,2,44.69a37.43,37.43,0,0,0,4.75,9.44,33.12,33.12,0,0,0,4.49,5.37,8,8,0,0,0,5.4,2.5h.25a14.94,14.94,0,0,0,4.87-1.28A15.22,15.22,0,0,1,27.4,59.5a14.66,14.66,0,0,1,5.49,1.21A13.71,13.71,0,0,0,38,61.93,8.32,8.32,0,0,0,43.5,59.5a30.52,30.52,0,0,0,4.3-5.19,34.3,34.3,0,0,0,3.33-6h0c.39-.92.75-1.88,1.09-2.88a14.16,14.16,0,0,1-4.29-2.81,13.11,13.11,0,0,1-4.3-9.87q-.06-7.6,6.93-11.86C48,17.19,44,15.14,38.82,14.72a7.63,7.63,0,0,0-.84,0Z"/></g></g></svg>