<svg xmlns="http://www.w3.org/2000/svg" viewBox="0 0 34 31"><defs><style>.cls-1{fill:#3a6e8f;}</style></defs><title>Asset 1</title><g id="Layer_2" data-name="Layer 2"><g id="chat"><path class="cls-1" d="M13.24,1l7.21,0a4.94,4.94,0,0,1,4.77,4.5c.19,3.83.2,7.57,0,11.11A5,5,0,0,1,20,21.42H15.5c-1.26,0-2.52,0-3.78,0A3.8,3.8,0,0,0,9.8,22c-1.49,1-3,2-4.46,3l.9-2.24a1,1,0,0,0,0-.85,1,1,0,0,0-.68-.51,4.92,4.92,0,0,1-3.77-2.65,6.51,6.51,0,0,1-.69-2.57C1,13.47,1,10.7,1,8V6.22A5.14,5.14,0,0,1,6,1l7.21,0m0-1L6,0a6.14,6.14,0,0,0-6,6.2c0,3.33-.07,6.67,0,10a7.63,7.63,0,0,0,.79,3,5.89,5.89,0,0,0,4.47,3.19l-2,5,.15.12c2.3-1.56,4.59-3.13,6.9-4.65a2.75,2.75,0,0,1,1.39-.41c1.25,0,2.51,0,3.76,0H20a6,6,0,0,0,6.24-5.74c.17-3.73.15-7.48,0-11.2A5.93,5.93,0,0,0,20.45,0L13.24,0Z"/><path class="cls-1" d="M26.35,9h0m.17.94h0c2.8,0,5.52,1,6.07,2.24a4,4,0,0,1,.35,1.56c0,1,0,2,0,3,0,1.37,0,2.79,0,4.2a4.25,4.25,0,0,1-3.43,4.74,1,1,0,0,0-.75,1.05L29,28.31a12.28,12.28,0,0,0-2.4-2.07,4.07,4.07,0,0,0-2-.63c-.81,0-1.93,0-3.44,0H16.47c-.48,0-1.54,0-1.72-3.14h3.94A18.05,18.05,0,0,0,21,22.34c5-.66,5.37-5.18,5.32-9.36V9.9h.17m0-1A10.9,10.9,0,0,0,25.35,9v4c.07,5.19-.85,7.9-4.45,8.37a18.38,18.38,0,0,1-2.21.11h-5c0,3.35.78,5.14,2.75,5.14h0l4.6,0c1.28,0,2.52,0,3.41,0a3,3,0,0,1,1.52.47c1.79,1.15,2.53,2.49,4.15,3.92l-.36-4.39A5.23,5.23,0,0,0,34,20.85c-.12-2.38,0-4.78-.05-7.17a5.18,5.18,0,0,0-.44-1.94c-.83-1.88-4.24-2.84-7-2.84Z"/></g></g></svg>