<svg xmlns="http://www.w3.org/2000/svg" viewBox="0 0 63 62">
    <defs>
        <style>
            .cls-1 {
                fill: none;
                stroke: #3b6e8f;
                stroke-miterlimit: 10;
            }
        </style>
    </defs>
    <g id="Layer_2" data-name="Layer 2">
        <g id="piggy-bank-icon"><path
            class="cls-1"
            d="M23.48,12.8A27,27,0,0,0,7.35,23.13,23.16,23.16,0,0,0,3.8,34c0,6.12,3.06,11.65,8,15.65l-1.09,10a1.76,1.76,0,0,0,1.52,1.78h8.18a1.76,1.76,0,0,0,1.52-1.78l1.28-4.42a33,33,0,0,0,7.73.86,33.27,33.27,0,0,0,5.62-.51l1.15,4.08a1.75,1.75,0,0,0,1.52,1.77h8.18a1.76,1.76,0,0,0,1.52-1.78L48,51.3a23.71,23.71,0,0,0,7.45-7.79l3.1,1.39a1.53,1.53,0,0,0,1.88-1.07l2-7.41a1.61,1.61,0,0,0-1.13-1.91l-3.62-.45v0a19.33,19.33,0,0,0-5.5-13.49l3.42-6.27c-5-1.29-7.86.13-9.41,1.55A29.92,29.92,0,0,0,39.12,13"/><ellipse class="cls-1" cx="31.18" cy="9.46" rx="8.81" ry="8.96"/><path class="cls-1" d="M19.49,20.55c1.25-.73,13.24-4.39,21.75,0"/><ellipse class="cls-1" cx="49.27" cy="31.28" rx="2.08" ry="3.13"/><path class="cls-1" d="M6.55,17S2,16.05.73,20.17c-.67,2.08,0,5.89,3.92,8"/></g>
    </g>
</svg>
