<svg xmlns="http://www.w3.org/2000/svg" viewBox="0 0 33 26"><defs><style>.cls-1,.cls-2{fill:none;stroke:#3a6e8f;}.cls-1{stroke-linecap:round;stroke-linejoin:round;}.cls-2{stroke-miterlimit:10;}</style></defs><title>Asset 1</title><g id="Layer_2" data-name="Layer 2"><g id="branch"><line class="cls-1" x1="0.5" y1="25.5" x2="32.5" y2="25.5"/><line class="cls-1" x1="0.5" y1="10.79" x2="32.5" y2="10.79"/><line class="cls-1" x1="0.5" y1="7.85" x2="32.5" y2="7.85"/><polyline class="cls-1" points="0.5 4.91 15.04 0.5 17.95 0.5 32.5 4.91"/><line class="cls-2" x1="3.41" y1="21.09" x2="3.41" y2="15.21"/><line class="cls-2" x1="12.14" y1="21.09" x2="12.14" y2="15.21"/><line class="cls-2" x1="20.86" y1="21.09" x2="20.86" y2="15.21"/><line class="cls-2" x1="29.59" y1="21.09" x2="29.59" y2="15.21"/><line class="cls-1" x1="1.95" y1="22.56" x2="4.86" y2="22.56"/><line class="cls-1" x1="1.95" y1="13.74" x2="4.86" y2="13.74"/><line class="cls-1" x1="10.68" y1="22.56" x2="13.59" y2="22.56"/><line class="cls-1" x1="10.68" y1="13.74" x2="13.59" y2="13.74"/><line class="cls-1" x1="19.41" y1="22.56" x2="22.32" y2="22.56"/><line class="cls-1" x1="19.41" y1="13.74" x2="22.32" y2="13.74"/><line class="cls-1" x1="28.14" y1="22.56" x2="31.05" y2="22.56"/><line class="cls-1" x1="28.14" y1="13.74" x2="31.05" y2="13.74"/></g></g></svg>