<svg xmlns="http://www.w3.org/2000/svg" viewBox="0 0 28 36"><defs><style>.cls-1{fill:#3a6e8f;}</style></defs><title>Asset 1</title><g id="Layer_2" data-name="Layer 2"><g id="secure"><path class="cls-1" d="M14,1c4.75,0,8.6,4.15,8.6,9.27v6.18H27V35H1V16.45H5.4V10.27C5.4,5.15,9.25,1,14,1M8.26,16.45H19.74V10.27A6,6,0,0,0,14,4.09a6,6,0,0,0-5.74,6.18v6.18M14,0C8.7,0,4.4,4.61,4.4,10.27v5.18H1a1,1,0,0,0-1,1V35a1,1,0,0,0,1,1H27a1,1,0,0,0,1-1V16.45a1,1,0,0,0-1-1H23.6V10.27C23.6,4.61,19.3,0,14,0ZM9.26,15.45V10.27A5,5,0,0,1,14,5.09a5,5,0,0,1,4.74,5.18v5.18Z"/></g></g></svg>