<svg xmlns="http://www.w3.org/2000/svg" viewBox="0 0 34 20"><defs><style>.cls-1{fill:#3b6e8f;}.cls-2,.cls-3,.cls-4,.cls-5{fill:none;}.cls-3,.cls-4,.cls-5{stroke:#3b6e8f;}.cls-3,.cls-4{stroke-linejoin:round;}.cls-4,.cls-5{stroke-linecap:round;}.cls-5{stroke-miterlimit:10;}</style></defs><title>Asset 1</title><g id="Layer_2" data-name="Layer 2"><g id="check"><path class="cls-1" d="M33,1l0,0,0,18L1,19,1,1H33m0-1H1A1,1,0,0,0,0,1V19a1,1,0,0,0,1,1H33a1,1,0,0,0,1-1V1a1,1,0,0,0-1-1Z"/><path class="cls-2" d="M1.94,5.71H32.06a0,0,0,0,1,0,0V17.59a.51.51,0,0,1-.51.51H2.45a.51.51,0,0,1-.51-.51V5.71A0,0,0,0,1,1.94,5.71Z"/><rect class="cls-3" x="3.83" y="3.76" width="26.44" height="2.78"/><path class="cls-4" d="M29.83,11.37c-.58-.8-2.6-1.07-2.91.46-.37,1.8,2.69,1.1,2.71,2.56,0,1.22-1.73,1.61-3.12.45"/><line class="cls-4" x1="28.24" y1="9.51" x2="28.24" y2="10.74"/><line class="cls-4" x1="28.24" y1="16.62" x2="28.24" y2="15.86"/><line class="cls-5" x1="3.83" y1="11.61" x2="20.83" y2="11.61"/><line class="cls-5" x1="3.83" y1="15.42" x2="20.83" y2="15.42"/></g></g></svg>