<svg xmlns="http://www.w3.org/2000/svg" viewBox="0 0 36.02 31.36"><defs><style>.cls-1{fill:#3a6e8f;}.cls-2{fill:none;stroke:#3a6e8f;stroke-miterlimit:10;}</style></defs><title>Asset 1</title><g id="Layer_2" data-name="Layer 2"><g id="telephone"><path class="cls-1" d="M13.5,1a2.43,2.43,0,0,1,2.43,2.43V27.94a2.42,2.42,0,0,1-2.43,2.42H9.08a2.42,2.42,0,0,1-2.42-2.42V3.43A2.42,2.42,0,0,1,9.08,1H13.5m0-1H9.08A3.43,3.43,0,0,0,5.66,3.43V27.94a3.42,3.42,0,0,0,3.42,3.42H13.5a3.43,3.43,0,0,0,3.43-3.42V3.43A3.44,3.44,0,0,0,13.5,0Z"/><circle class="cls-1" cx="22.11" cy="14.91" r="1.55"/><circle class="cls-1" cx="26.74" cy="14.91" r="1.55"/><circle class="cls-1" cx="31.38" cy="14.91" r="1.55"/><circle class="cls-1" cx="22.11" cy="19.55" r="1.55"/><circle class="cls-1" cx="26.74" cy="19.55" r="1.55"/><circle class="cls-1" cx="31.38" cy="19.55" r="1.55"/><circle class="cls-1" cx="22.11" cy="24.18" r="1.55"/><circle class="cls-1" cx="26.74" cy="24.18" r="1.55"/><circle class="cls-1" cx="31.38" cy="24.18" r="1.55"/><rect class="cls-2" x="20.56" y="7.18" width="12.36" height="3.09" rx="1.39"/><path class="cls-2" d="M3.73,3.32C2.66,3.32.5,3.22.5,4.3V26.69c0,1.07,1.59,2.9,2.66,2.9"/><path class="cls-2" d="M19,30.5H33.85c2,0,1.65-2.74,1.65-3.81V4.3c0-1.08-2.18-.8-3.25-.8H19"/></g></g></svg>