<svg xmlns="http://www.w3.org/2000/svg" viewBox="0 0 35 32"><defs><style>.cls-1{fill:none;stroke:#3a6e8f;stroke-linecap:round;stroke-linejoin:round;stroke-width:1px;}</style></defs><title>Asset 1</title><g id="Layer_2" data-name="Layer 2"><g id="email"><polygon class="cls-1" points="34.5 31.5 0.5 31.5 0.5 11.69 17.5 24.54 34.5 11.69 34.5 31.5"/><polyline class="cls-1" points="4.38 14.38 4.38 3.36 30.62 3.36 30.62 14.38"/><line class="cls-1" x1="0.5" y1="11.32" x2="4.06" y2="9.08"/><line class="cls-1" x1="13.67" y1="3.03" x2="17.69" y2="0.5"/><line class="cls-1" x1="34.5" y1="11.69" x2="30.94" y2="9.32"/><line class="cls-1" x1="21.98" y1="3.36" x2="17.69" y2="0.5"/><path class="cls-1" d="M20.26,10.23S14.71,8.52,14.83,13c.08,3.32,4.09,2.92,4.79,1.29"/><path class="cls-1" d="M21.12,18s-9.85,3.23-9.66-5.57c.18-8.24,12.8-7.43,12.28-.54,0,0-.64,5.58-4,2.47"/><line class="cls-1" x1="19.82" y1="10.23" x2="19.71" y2="14.38"/></g></g></svg>