<svg xmlns="http://www.w3.org/2000/svg" viewBox="0 0 22.92 14.92"><defs><style>.cls-1{fill:none;stroke:#3b6e8f;stroke-linecap:round;stroke-linejoin:round;stroke-width:0.92px;}</style></defs><title>Asset 1</title><g id="Layer_2" data-name="Layer 2"><g id="auto"><path class="cls-1" d="M22.12,3.46H19.5c-1-1.33-2.28-3-2.74-3H6c-.46,0-1.75,1.67-2.74,3H.77a.57.57,0,0,0-.16.89c.2.28.79.34,1.36.46A2.37,2.37,0,0,0,.75,6.64v6.88c0,.19.17.94.36.94H4.89c.18,0,.2-.75.2-.94v-.06H17.42v.06c0,.19.28.94.46.94h3.78c.18,0,.43-.75.43-.94V6.64a2.6,2.6,0,0,0-1.22-1.93c.6-.12,1.23-.06,1.44-.36A.57.57,0,0,0,22.12,3.46ZM6.3,2h10l2.33,2.51H4ZM7,8.46H3.86c-.55,0-1.19-1.11-1.19-1.66V6.46H5.9c.55,0,1.1,0,1.1.51ZM20.43,6.8c0,.55-.27,1.66-.83,1.66H16.42V7c0-.55.59-.51,1.14-.51h2.87Z"/></g></g></svg>