<?xml version="1.0" encoding="UTF-8"?>
<svg width="20px" height="20px" viewBox="0 0 20 20" version="1.1" xmlns="http://www.w3.org/2000/svg" xmlns:xlink="http://www.w3.org/1999/xlink">
    <!-- Generator: Sketch 54.1 (76490) - https://sketchapp.com -->
    <title>💎 Icon</title>
    <desc>Created with Sketch.</desc>
    <defs>
        <path d="M12,2 C17.52,2 22,6.48 22,12 C22,17.52 17.52,22 12,22 C6.48,22 2,17.52 2,12 C2,6.48 6.48,2 12,2 Z M12,20 C16.41,20 20,16.41 20,12 C20,7.59 16.41,4 12,4 C7.59,4 4,7.59 4,12 C4,16.41 7.59,20 12,20 Z M11,7 L13,7 L13,9 L11,9 L11,7 Z M11,11 L13,11 L13,17 L11,17 L11,11 Z" id="path-1"></path>
    </defs>
    <g id="Alerts" stroke="none" stroke-width="1" fill="none" fill-rule="evenodd">
        <g id="Alerts/1-Single-Line/Blue-Background/1-Info" transform="translate(-18.000000, -10.000000)">
            <g id="3-Icons/1-Material/info_outline" transform="translate(16.000000, 8.000000)">
                <mask id="mask-2" fill="white">
                    <use xlink:href="#path-1"></use>
                </mask>
                <g id="Mask" fill-rule="nonzero"></g>
                <g id="2-Colors/3-Neutrals/3-Dark/2-Almost-Black" mask="url(#mask-2)" fill="#111112" fill-rule="nonzero">
                    <rect id="Swatch" x="0" y="0" width="24" height="24"></rect>
                </g>
            </g>
        </g>
    </g>
</svg>